<?xml version="1.0" encoding="utf-8"?>
<?xml-stylesheet type="text/xsl" href="rss1.xsl"?>
<rss version="2.0" xmlns:atom="http://www.w3.org/2005/Atom" xmlns:content="http://purl.org/rss/1.0/modules/content/" xmlns:dc="http://purl.org/dc/elements/1.1/" xmlns:media="http://search.yahoo.com/mrss/">
<channel>
 <title>Getty</title>
 <link>http://www.gettyimg.com/</link>
 <atom:link href="http://www.gettyimg.com/" rel="self" type="application/rss+xml" />

 
                <item>
                <title><![CDATA[【DVD】DVD9 - 2015 BIGBANG WORLD TOUR [MADE] IN SEOUL DVD | 5.1 SRND Sound w/ KOR, ENG, CHINESE Subs]]></title>
                <link><![CDATA[https://sharemania.us/threads/2015-bigbang-world-tour-made-in-seoul-dvd-5-1-srnd-sound-w-kor-eng-chinese-subs.227566/]]></link>
                <description><![CDATA[<article>
<blockquote class="messageText SelectQuoteContainer ugc baseHtml">
<div style="text-align: center"><img src="https://i.discogs.com/8xNT0igJ8p-QdfW7sAZQuoSGnJkEojTLz71kIQH4CmU/rs:fit/g:sm/q:90/h:600/w:461/czM6Ly9kaXNjb2dz/LWRhdGFiYXNlLWlt/YWdlcy9SLTgzMTUx/NTItMTQ1OTE4ODE0/Ny01MTg2LmpwZWc.jpeg" class="bbCodeImage LbImage" alt="[​IMG]" data-url="https://i.discogs.com/8xNT0igJ8p-QdfW7sAZQuoSGnJkEojTLz71kIQH4CmU/rs:fit/g:sm/q:90/h:600/w:461/czM6Ly9kaXNjb2dz/LWRhdGFiYXNlLWlt/YWdlcy9SLTgzMTUx/NTItMTQ1OTE4ODE0/Ny01MTg2LmpwZWc.jpeg" style=""> ​</div><div style="text-align: left">
<div class="ToggleTriggerAnchor bbCodeSpoilerContainer">
<button type="button" class="button bbCodeSpoilerButton ToggleTrigger Tooltip JsOnly" data-target="> .SpoilerTarget"><span>Spoiler: <span class="SpoilerTitle">DISC 1 TRACKLIST</span></span></button>
<div class="SpoilerTarget bbCodeSpoilerText">01. FANTASTIC BABY<br>
02. TONIGHT<br>
03. STUPID LIAR<br>
04. MENT#1<br>
05. 하루하루 (HARU HARU)<br>
06. HOW GEE<br>
07. FEELING<br>
08. LOSER<br>
09. BLUE<br>
10. MENT#2<br>
11. BAD BOY<br>
12. Café<br>
13. 거짓말 (LIES)<br>
14. STRONG BABY<br>
15. LET’S TALK ABOUT LOVE<br>
16. 날개 (WINGS)<br>
17. DOOM DADA<br>
18. 눈코입 (EYES, NOSE, LIPS)<br>
19. GOOD BOY<br>
20. 삐딱하게 (CROOKED)<br>
21. BAE BAE<br>
22. MENT#3<br>
23. 마지막인사 (LAST FAREWELL)</div>
</div>
<div class="ToggleTriggerAnchor bbCodeSpoilerContainer">
<button type="button" class="button bbCodeSpoilerButton ToggleTrigger Tooltip JsOnly" data-target="> .SpoilerTarget"><span>Spoiler: <span class="SpoilerTitle">DISC 1 MEDIAINFO</span></span></button>
<div class="SpoilerTarget bbCodeSpoilerText">General<br>
Unique ID : 328060252988540451395806218989547471174 (0xF6CE1B423BB21E56096DD46EBA52C146)<br>
Complete name : 01 Full Performance [DISC 1].mkv<br>
Format : Matroska<br>
Format version : Version 4<br>
File size : 3.14 GiB<br>
Duration : 2 h 6 min<br>
Overall bit rate : 3 539 kb/s<br>
Frame rate : 29.970 FPS<br>
Encoded date : 2023-09-02 00:31:46 UTC<br>
Writing application : XXI @ <a href="https://sharemania.us" class="internalLink">https://sharemania.us</a><br>
Writing library : Lavf59.27.100<br>
ErrorDetectionType : Per level 1<br>
Video<br>
ID : 1<br>
Format : AVC<br>
Format/Info : Advanced Video Codec<br>
Format profile : High@L3.1<br>
Format settings : CABAC / 5 Ref Frames<br>
Format settings, CABAC : Yes<br>
Format settings, Reference frames : 5 frames<br>
Codec ID : V_MPEG4/ISO/AVC<br>
Duration : 2 h 6 min<br>
Bit rate : 2 797 kb/s<br>
Width : 720 pixels<br>
Height : 480 pixels<br>
Display aspect ratio : 16:9<br>
Frame rate mode : Constant<br>
Frame rate : 29.970 (30000/1001) FPS<br>
Standard : NTSC<br>
Color space : YUV<br>
Chroma subsampling : 4:2:0<br>
Bit depth : 8 bits<br>
Scan type : Progressive<br>
Bits/(Pixel*Frame) : 0.270<br>
Stream size : 2.48 GiB (79%)<br>
Writing library : x264 core 164 r3100 ed0f7a6<br>
Encoding settings : cabac=1 / ref=5 / deblock=1:-1:-1 / analyse=0x3:0x113 / me=hex / subme=8 / psy=1 / psy_rd=1.00:0.15 / mixed_ref=1 / me_range=16 / chroma_me=1 / trellis=2 / 8x8dct=1 / cqm=0 / deadzone=21,11 / fast_pskip=1 / chroma_qp_offset=-3 / threads=12 / lookahead_threads=2 / sliced_threads=0 / nr=0 / decimate=1 / interlaced=0 / bluray_compat=0 / constrained_intra=0 / bframes=5 / b_pyramid=2 / b_adapt=1 / b_bias=0 / direct=3 / weightb=1 / open_gop=0 / weightp=2 / keyint=300 / keyint_min=30 / scenecut=40 / intra_refresh=0 / rc_lookahead=50 / rc=crf / mbtree=1 / crf=20.0 / qcomp=0.60 / qpmin=0 / qpmax=69 / qpstep=4 / vbv_maxrate=17500 / vbv_bufsize=17500 / crf_max=0.0 / nal_hrd=none / filler=0 / ip_ratio=1.40 / aq=1:1.00<br>
Default : Yes<br>
Forced : No<br>
Color range : Limited<br>
Color primaries : BT.601 NTSC<br>
Transfer characteristics : BT.601<br>
Matrix coefficients : BT.601<br>
Audio #1<br>
ID : 2<br>
Format : AC-3<br>
Format/Info : Audio Coding 3<br>
Commercial name : Dolby Digital<br>
Codec ID : A_AC3<br>
Duration : 2 h 6 min<br>
Bit rate mode : Constant<br>
Bit rate : 224 kb/s<br>
Channel(s) : 2 channels<br>
Channel layout : L R<br>
Sampling rate : 48.0 kHz<br>
Frame rate : 31.250 FPS (1536 SPF)<br>
Compression mode : Lossy<br>
Stream size : 203 MiB (6%)<br>
Title : Stereo<br>
Language : Korean<br>
Service kind : Complete Main<br>
Default : Yes<br>
Forced : No<br>
Audio #2<br>
ID : 3<br>
Format : AC-3<br>
Format/Info : Audio Coding 3<br>
Commercial name : Dolby Digital<br>
Codec ID : A_AC3<br>
Duration : 2 h 6 min<br>
Bit rate mode : Constant<br>
Bit rate : 448 kb/s<br>
Channel(s) : 6 channels<br>
Channel layout : L R C LFE Ls Rs<br>
Sampling rate : 48.0 kHz<br>
Frame rate : 31.250 FPS (1536 SPF)<br>
Compression mode : Lossy<br>
Stream size : 406 MiB (13%)<br>
Title : Surround<br>
Language : Korean<br>
Service kind : Complete Main<br>
Default : No<br>
Forced : No<br>
Text #1<br>
ID : 4<br>
Format : VobSub<br>
Codec ID : S_VOBSUB<br>
Codec ID/Info : Picture based subtitle format used on DVDs<br>
Duration : 2 h 6 min<br>
Language : Korean<br>
Default : No<br>
Forced : No<br>
Text #2<br>
ID : 5<br>
Format : VobSub<br>
Codec ID : S_VOBSUB<br>
Codec ID/Info : Picture based subtitle format used on DVDs<br>
Duration : 2 h 6 min<br>
Language : English<br>
Default : No<br>
Forced : No<br>
Text #3<br>
ID : 6<br>
Format : VobSub<br>
Codec ID : S_VOBSUB<br>
Codec ID/Info : Picture based subtitle format used on DVDs<br>
Duration : 2 h 6 min<br>
Language : Chinese<br>
Default : No<br>
Forced : No<br>
Menu<br>
00:00:00.000 : Chapter 1<br>
00:05:06.106 : Chapter 2<br>
00:08:59.406 : Chapter 3<br>
00:12:59.812 : Chapter 4<br>
00:17:34.587 : Chapter 5<br>
00:20:09.275 : Chapter 6<br>
00:25:12.578 : Chapter 7<br>
00:31:11.903 : Chapter 8<br>
00:38:22.901 : Chapter 9<br>
00:42:22.106 : Chapter 10<br>
00:47:23.841 : Chapter 11<br>
00:55:43.640 : Chapter 12<br>
01:00:26.256 : Chapter 13<br>
01:06:10.834 : Chapter 14<br>
01:10:10.473 : Chapter 15<br>
01:15:16.112 : Chapter 16<br>
01:19:08.344 : Chapter 17<br>
01:26:02.591 : Chapter 18<br>
01:29:51.887 : Chapter 19<br>
01:36:55.610 : Chapter 20<br>
01:41:57.011 : Chapter 21<br>
01:46:50.871 : Chapter 22<br>
01:49:58.559 : Chapter 23<br>
02:01:29.149 : Chapter 24</div>
</div><br>
<div class="ToggleTriggerAnchor bbCodeSpoilerContainer">
<button type="button" class="button bbCodeSpoilerButton ToggleTrigger Tooltip JsOnly" data-target="> .SpoilerTarget"><span>Spoiler: <span class="SpoilerTitle">DISC 2 TRACKLIST</span></span></button>
<div class="SpoilerTarget bbCodeSpoilerText">[MADE] SPECIAL ENCORE<br>
01. HANDS UP<br>
02. 천국 (HEAVEN)<br>
03. MENT#4<br>
04. 날봐 귀순 (LOOK AT ME, GWISUN)<br>
05. FANTASTIC BABY<br>
06. BAE BAE<br>
07. LOSER<br>
08. BAE BAE (SHORT VER.)<br>
<br>
[MADE] SPECIAL FEATURES<br>
<br>
09. INTRO<br>
10. PARTY+VANITY<br>
11. HUSTLER<br>
12. MR. CLEAN<br>
13. TOOTHPICK<br>
14. PYRO<br>
15. OUTRO</div>
</div>
<div class="ToggleTriggerAnchor bbCodeSpoilerContainer">
<button type="button" class="button bbCodeSpoilerButton ToggleTrigger Tooltip JsOnly" data-target="> .SpoilerTarget"><span>Spoiler: <span class="SpoilerTitle">DISC 2 MEDIAINFO</span></span></button>
<div class="SpoilerTarget bbCodeSpoilerText">General<br>
Unique ID : 240592411904911866858453735462766719889 (0xB50069BD838B58923E9FE161E59D3391)<br>
Complete name : 01 Special Encore Performance [DISC 2].mkv<br>
Format : Matroska<br>
Format version : Version 4<br>
File size : 819 MiB<br>
Duration : 36 min 51 s<br>
Overall bit rate : 3 107 kb/s<br>
Frame rate : 29.970 FPS<br>
Encoded date : 2023-09-02 01:12:05 UTC<br>
Writing application : XXI @ <a href="https://sharemania.us" class="internalLink">https://sharemania.us</a><br>
Writing library : Lavf59.27.100<br>
ErrorDetectionType : Per level 1<br>
Video<br>
ID : 1<br>
Format : AVC<br>
Format/Info : Advanced Video Codec<br>
Format profile : High@L3.1<br>
Format settings : CABAC / 5 Ref Frames<br>
Format settings, CABAC : Yes<br>
Format settings, Reference frames : 5 frames<br>
Codec ID : V_MPEG4/ISO/AVC<br>
Duration : 36 min 51 s<br>
Bit rate : 2 373 kb/s<br>
Width : 720 pixels<br>
Height : 480 pixels<br>
Display aspect ratio : 16:9<br>
Frame rate mode : Constant<br>
Frame rate : 29.970 (30000/1001) FPS<br>
Standard : NTSC<br>
Color space : YUV<br>
Chroma subsampling : 4:2:0<br>
Bit depth : 8 bits<br>
Scan type : Progressive<br>
Bits/(Pixel*Frame) : 0.229<br>
Stream size : 626 MiB (76%)<br>
Writing library : x264 core 164 r3100 ed0f7a6<br>
Encoding settings : cabac=1 / ref=5 / deblock=1:-1:-1 / analyse=0x3:0x113 / me=hex / subme=8 / psy=1 / psy_rd=1.00:0.15 / mixed_ref=1 / me_range=16 / chroma_me=1 / trellis=2 / 8x8dct=1 / cqm=0 / deadzone=21,11 / fast_pskip=1 / chroma_qp_offset=-3 / threads=12 / lookahead_threads=2 / sliced_threads=0 / nr=0 / decimate=1 / interlaced=0 / bluray_compat=0 / constrained_intra=0 / bframes=5 / b_pyramid=2 / b_adapt=1 / b_bias=0 / direct=3 / weightb=1 / open_gop=0 / weightp=2 / keyint=300 / keyint_min=30 / scenecut=40 / intra_refresh=0 / rc_lookahead=50 / rc=crf / mbtree=1 / crf=20.0 / qcomp=0.60 / qpmin=0 / qpmax=69 / qpstep=4 / vbv_maxrate=17500 / vbv_bufsize=17500 / crf_max=0.0 / nal_hrd=none / filler=0 / ip_ratio=1.40 / aq=1:1.00<br>
Default : Yes<br>
Forced : No<br>
Color range : Limited<br>
Color primaries : BT.601 NTSC<br>
Transfer characteristics : BT.601<br>
Matrix coefficients : BT.601<br>
Audio #1<br>
ID : 2<br>
Format : AC-3<br>
Format/Info : Audio Coding 3<br>
Commercial name : Dolby Digital<br>
Codec ID : A_AC3<br>
Duration : 36 min 49 s<br>
Bit rate mode : Constant<br>
Bit rate : 224 kb/s<br>
Channel(s) : 2 channels<br>
Channel layout : L R<br>
Sampling rate : 48.0 kHz<br>
Frame rate : 31.250 FPS (1536 SPF)<br>
Compression mode : Lossy<br>
Stream size : 59.0 MiB (7%)<br>
Title : Stereo<br>
Language : Korean<br>
Service kind : Complete Main<br>
Default : Yes<br>
Forced : No<br>
Audio #2<br>
ID : 3<br>
Format : AC-3<br>
Format/Info : Audio Coding 3<br>
Commercial name : Dolby Digital<br>
Codec ID : A_AC3<br>
Duration : 36 min 49 s<br>
Bit rate mode : Constant<br>
Bit rate : 448 kb/s<br>
Channel(s) : 6 channels<br>
Channel layout : L R C LFE Ls Rs<br>
Sampling rate : 48.0 kHz<br>
Frame rate : 31.250 FPS (1536 SPF)<br>
Compression mode : Lossy<br>
Stream size : 118 MiB (14%)<br>
Title : Surround<br>
Language : Korean<br>
Service kind : Complete Main<br>
Default : No<br>
Forced : No<br>
Text #1<br>
ID : 4<br>
Format : VobSub<br>
Codec ID : S_VOBSUB<br>
Codec ID/Info : Picture based subtitle format used on DVDs<br>
Duration : 32 min 21 s<br>
Language : Korean<br>
Default : No<br>
Forced : No<br>
Text #2<br>
ID : 5<br>
Format : VobSub<br>
Codec ID : S_VOBSUB<br>
Codec ID/Info : Picture based subtitle format used on DVDs<br>
Duration : 32 min 21 s<br>
Language : English<br>
Default : No<br>
Forced : No<br>
Text #3<br>
ID : 6<br>
Format : VobSub<br>
Codec ID : S_VOBSUB<br>
Codec ID/Info : Picture based subtitle format used on DVDs<br>
Duration : 32 min 21 s<br>
Language : Chinese<br>
Default : No<br>
Forced : No<br>
Menu<br>
00:00:00.000 : Chapter 1<br>
00:03:48.428 : Chapter 2<br>
00:07:46.533 : Chapter 3<br>
00:12:40.426 : Chapter 4<br>
00:14:59.065 : Chapter 5<br>
00:18:09.121 : Chapter 6<br>
00:23:11.957 : Chapter 7<br>
00:27:04.556 : Chapter 8<br>
00:31:07.132 : Chapter 9<br>
00:33:11.957 : Chapter 10</div>
</div><br>
<div class="ToggleTriggerAnchor bbCodeSpoilerContainer">
<button type="button" class="button bbCodeSpoilerButton ToggleTrigger Tooltip JsOnly" data-target="> .SpoilerTarget"><span>Spoiler: <span class="SpoilerTitle">DISC 3 TRACKLIST</span></span></button>
<div class="SpoilerTarget bbCodeSpoilerText"><b>MULTI-ANGLES:</b><br>
01. FANTASTIC BABY (G-DRAGON/T.O.P/SOL/D-LITE/V.I)<br>
02. HOW GEE (G-DRAGON/T.O.P/SOL/D-LITE/V.I)<br>
03. BAD BOY (G-DRAGON/T.O.P/SOL/D-LITE/V.I)<br>
04. LIES (G-DRAGON/T.O.P/SOL/D-LITE/V.I)<br>
05. LAST FAREWELL (G-DRAGON/T.O.P/SOL/D-LITE/V.I)</div>
</div>
<div class="ToggleTriggerAnchor bbCodeSpoilerContainer">
<button type="button" class="button bbCodeSpoilerButton ToggleTrigger Tooltip JsOnly" data-target="> .SpoilerTarget"><span>Spoiler: <span class="SpoilerTitle">DISC 3 MEDIAINFO</span></span></button>
<div class="SpoilerTarget bbCodeSpoilerText">General<br>
Unique ID : 10610394871261275544217808136722056507 (0x7FB7CDB3F0F67B60E10452381E2053B)<br>
Complete name : 01 Fantastic Baby - G-DRAGON.mkv<br>
Format : Matroska<br>
Format version : Version 4<br>
File size : 72.6 MiB<br>
Duration : 3 min 55 s<br>
Overall bit rate : 2 590 kb/s<br>
Frame rate : 29.970 FPS<br>
Encoded date : 2023-09-02 01:48:41 UTC<br>
Writing application : XXI @ <a href="https://sharemania.us" class="internalLink">https://sharemania.us</a><br>
Writing library : Lavf59.27.100<br>
ErrorDetectionType : Per level 1<br>
Video<br>
ID : 1<br>
Format : AVC<br>
Format/Info : Advanced Video Codec<br>
Format profile : High@L3.1<br>
Format settings : CABAC / 5 Ref Frames<br>
Format settings, CABAC : Yes<br>
Format settings, Reference frames : 5 frames<br>
Codec ID : V_MPEG4/ISO/AVC<br>
Duration : 3 min 55 s<br>
Bit rate : 2 347 kb/s<br>
Width : 720 pixels<br>
Height : 480 pixels<br>
Display aspect ratio : 16:9<br>
Frame rate mode : Constant<br>
Frame rate : 29.970 (30000/1001) FPS<br>
Standard : NTSC<br>
Color space : YUV<br>
Chroma subsampling : 4:2:0<br>
Bit depth : 8 bits<br>
Scan type : Progressive<br>
Bits/(Pixel*Frame) : 0.227<br>
Stream size : 65.8 MiB (91%)<br>
Writing library : x264 core 164 r3100 ed0f7a6<br>
Encoding settings : cabac=1 / ref=5 / deblock=1:-1:-1 / analyse=0x3:0x113 / me=hex / subme=8 / psy=1 / psy_rd=1.00:0.15 / mixed_ref=1 / me_range=16 / chroma_me=1 / trellis=2 / 8x8dct=1 / cqm=0 / deadzone=21,11 / fast_pskip=1 / chroma_qp_offset=-3 / threads=12 / lookahead_threads=2 / sliced_threads=0 / nr=0 / decimate=1 / interlaced=0 / bluray_compat=0 / constrained_intra=0 / bframes=5 / b_pyramid=2 / b_adapt=1 / b_bias=0 / direct=3 / weightb=1 / open_gop=0 / weightp=2 / keyint=300 / keyint_min=30 / scenecut=40 / intra_refresh=0 / rc_lookahead=50 / rc=crf / mbtree=1 / crf=20.0 / qcomp=0.60 / qpmin=0 / qpmax=69 / qpstep=4 / vbv_maxrate=17500 / vbv_bufsize=17500 / crf_max=0.0 / nal_hrd=none / filler=0 / ip_ratio=1.40 / aq=1:1.00<br>
Default : Yes<br>
Forced : No<br>
Color range : Limited<br>
Color primaries : BT.601 NTSC<br>
Transfer characteristics : BT.601<br>
Matrix coefficients : BT.601<br>
Audio<br>
ID : 2<br>
Format : AC-3<br>
Format/Info : Audio Coding 3<br>
Commercial name : Dolby Digital<br>
Codec ID : A_AC3<br>
Duration : 3 min 53 s<br>
Bit rate mode : Constant<br>
Bit rate : 192 kb/s<br>
Channel(s) : 2 channels<br>
Channel layout : L R<br>
Sampling rate : 48.0 kHz<br>
Frame rate : 31.250 FPS (1536 SPF)<br>
Compression mode : Lossy<br>
Stream size : 5.35 MiB (7%)<br>
Title : Stereo<br>
Language : Korean<br>
Service kind : Complete Main<br>
Default : Yes<br>
Forced : No<br>
Text #1<br>
ID : 3<br>
Format : VobSub<br>
Codec ID : S_VOBSUB<br>
Codec ID/Info : Picture based subtitle format used on DVDs<br>
Duration : 3 s 435 ms<br>
Language : Korean<br>
Default : No<br>
Forced : No<br>
Text #2<br>
ID : 4<br>
Format : VobSub<br>
Codec ID : S_VOBSUB<br>
Codec ID/Info : Picture based subtitle format used on DVDs<br>
Duration : 3 s 435 ms<br>
Language : English<br>
Default : No<br>
Forced : No<br>
Text #3<br>
ID : 5<br>
Format : VobSub<br>
Codec ID : S_VOBSUB<br>
Codec ID/Info : Picture based subtitle format used on DVDs<br>
Duration : 3 s 435 ms<br>
Language : Chinese<br>
Default : No<br>
Forced : No</div>
</div></div><div style="text-align: center">
<div class="bbCodeBlock bbCodeVfcHH HiddenContent">
<div class="attribution type">Hidden Content:</div>
<blockquote>You must reply before you can see the hidden data contained here.</blockquote>
</div></div>
<div class="messageTextEndMarker">&nbsp;</div>
</blockquote>
</article>]]></description>
                <author><![CDATA[XXI]]></author>
                </item>

                
                <item>
                <title><![CDATA[【Actresses】Olivia Wilde - The Change Up (2011)]]></title>
                <link><![CDATA[https://sharemania.us/threads/olivia-wilde-the-change-up-2011.227567/]]></link>
                <description><![CDATA[<article>
<blockquote class="messageText SelectQuoteContainer ugc baseHtml">
Olivia Wilde - The Change Up (2011)<br>
<br>
<a href="https://imgbox.com/R9qj4XSd" target="_blank" class="externalLink" rel="nofollow"><img src="https://thumbs2.imgbox.com/14/3a/R9qj4XSd_t.jpg" class="bbCodeImage LbImage" alt="[​IMG]" data-url="https://thumbs2.imgbox.com/14/3a/R9qj4XSd_t.jpg"></a> <a href="https://imgbox.com/vmxiGn4e" target="_blank" class="externalLink" rel="nofollow"><img src="https://thumbs2.imgbox.com/c3/42/vmxiGn4e_t.jpg" class="bbCodeImage LbImage" alt="[​IMG]" data-url="https://thumbs2.imgbox.com/c3/42/vmxiGn4e_t.jpg"></a> <a href="https://imgbox.com/K94Dizno" target="_blank" class="externalLink" rel="nofollow"><img src="https://thumbs2.imgbox.com/dc/2b/K94Dizno_t.jpg" class="bbCodeImage LbImage" alt="[​IMG]" data-url="https://thumbs2.imgbox.com/dc/2b/K94Dizno_t.jpg"></a> <a href="https://imgbox.com/ypujEaXd" target="_blank" class="externalLink" rel="nofollow"><img src="https://thumbs2.imgbox.com/88/65/ypujEaXd_t.jpg" class="bbCodeImage LbImage" alt="[​IMG]" data-url="https://thumbs2.imgbox.com/88/65/ypujEaXd_t.jpg"></a> <a href="https://imgbox.com/YRNGinZx" target="_blank" class="externalLink" rel="nofollow"><img src="https://thumbs2.imgbox.com/f4/26/YRNGinZx_t.jpg" class="bbCodeImage LbImage" alt="[​IMG]" data-url="https://thumbs2.imgbox.com/f4/26/YRNGinZx_t.jpg"></a> <a href="https://imgbox.com/HHEEQN6B" target="_blank" class="externalLink" rel="nofollow"><img src="https://thumbs2.imgbox.com/e4/52/HHEEQN6B_t.jpg" class="bbCodeImage LbImage" alt="[​IMG]" data-url="https://thumbs2.imgbox.com/e4/52/HHEEQN6B_t.jpg"></a><br>
Duration: 0:02:06 Resolution: 720x576 Format: mp4 Size: 11.09 MB<br>
<br>
<div class="bbCodeBlock bbCodeVfcHH HiddenContent">
<div class="attribution type">Hidden Content:</div>
<blockquote>You must either reply or click 'Like' to see the hidden information contained here.</blockquote>
</div>
<div class="messageTextEndMarker">&nbsp;</div>
</blockquote>
</article>]]></description>
                <author><![CDATA[piqeros]]></author>
                </item>

                </channel></rss>